<svg xmlns="http://www.w3.org/2000/svg" width="800" height="400" viewBox="0 0 800 400"><rect width="100%" height="100%" fill="#DDDDDD"/><path fill="#999999" d="M172.225 186.51v3.42h-6.76v18.99h-4.17v-18.99h-6.75v-3.42h17.68Zm24.32 11.2q0 2.47-.81 4.57-.82 2.1-2.3 3.63-1.49 1.54-3.58 2.4-2.1.86-4.65.86-2.55 0-4.64-.86t-3.59-2.4q-1.49-1.53-2.31-3.63-.83-2.1-.83-4.57 0-2.46.83-4.56.82-2.1 2.31-3.64 1.5-1.53 3.59-2.39 2.09-.86 4.64-.86 1.7 0 3.2.39 1.51.4 2.76 1.12 1.26.72 2.26 1.75 1 1.03 1.7 2.3.69 1.27 1.06 2.76.36 1.49.36 3.13Zm-4.26 0q0-1.84-.5-3.31-.49-1.46-1.41-2.48-.91-1.03-2.22-1.57t-2.95-.54q-1.65 0-2.96.54t-2.23 1.57q-.92 1.02-1.42 2.48-.49 1.47-.49 3.31 0 1.85.49 3.31.5 1.47 1.42 2.48.92 1.02 2.23 1.56t2.96.54q1.64 0 2.95-.54 1.31-.54 2.22-1.56.92-1.01 1.41-2.48.5-1.46.5-3.31Zm27.84 0q0 2.47-.82 4.53-.83 2.06-2.31 3.55-1.49 1.49-3.58 2.31-2.1.82-4.65.82h-8.55v-22.41h8.55q2.55 0 4.65.83 2.09.83 3.58 2.31 1.48 1.48 2.31 3.54.82 2.06.82 4.52Zm-4.28 0q0-1.84-.49-3.31-.49-1.46-1.41-2.48-.92-1.01-2.23-1.55-1.31-.55-2.95-.55h-4.36v15.78h4.36q1.64 0 2.95-.54 1.31-.54 2.23-1.56.92-1.01 1.41-2.48.49-1.46.49-3.31Zm29.32 0q0 2.47-.81 4.57t-2.3 3.63q-1.49 1.54-3.58 2.4-2.09.86-4.65.86-2.54 0-4.64-.86-2.09-.86-3.58-2.4-1.5-1.53-2.32-3.63-.82-2.1-.82-4.57 0-2.46.82-4.56.82-2.1 2.32-3.64 1.49-1.53 3.58-2.39 2.1-.86 4.64-.86 1.7 0 3.21.39 1.5.4 2.76 1.12 1.25.72 2.25 1.75t1.7 2.3q.7 1.27 1.06 2.76.36 1.49.36 3.13Zm-4.26 0q0-1.84-.49-3.31-.5-1.46-1.41-2.48-.92-1.03-2.23-1.57t-2.95-.54q-1.64 0-2.95.54-1.31.54-2.24 1.57-.92 1.02-1.41 2.48-.5 1.47-.5 3.31 0 1.85.5 3.31.49 1.47 1.41 2.48.93 1.02 2.24 1.56t2.95.54q1.64 0 2.95-.54 1.31-.54 2.23-1.56.91-1.01 1.41-2.48.49-1.46.49-3.31Zm19.64-.54h2.6q1.18 0 2.06-.29.87-.3 1.44-.82t.84-1.23q.28-.71.28-1.56 0-1.71-1.12-2.62-1.12-.92-3.43-.92h-2.67v7.44Zm7.72 3.47 5.61 8.28h-3.77q-1.07 0-1.55-.84l-4.71-7.17q-.26-.41-.58-.58-.32-.17-.94-.17h-1.78v8.76h-4.17v-22.41h6.84q2.28 0 3.91.47 1.64.47 2.68 1.33 1.05.85 1.54 2.03.5 1.19.5 2.62 0 1.13-.33 2.13-.34 1.01-.96 1.83-.63.82-1.55 1.44-.93.62-2.1.98.4.23.74.55.34.32.62.75Zm10.46-1.5h7.23q0-.74-.21-1.4-.21-.66-.63-1.16-.42-.49-1.06-.78-.65-.29-1.5-.29-1.66 0-2.61.95-.95.94-1.22 2.68Zm9.77 2.31h-9.85q.1 1.22.44 2.11.34.9.9 1.48t1.32.87q.77.28 1.7.28.93 0 1.6-.21.68-.22 1.18-.49.51-.26.89-.48.38-.21.73-.21.48 0 .72.35l1.1 1.4q-.64.74-1.43 1.25-.79.5-1.65.8-.86.3-1.75.43-.89.12-1.73.12-1.66 0-3.09-.55-1.42-.55-2.48-1.63-1.05-1.07-1.65-2.66-.61-1.59-.61-3.68 0-1.63.53-3.06.53-1.44 1.51-2.5t2.4-1.68q1.42-.62 3.2-.62 1.51 0 2.78.48 1.27.48 2.18 1.4.92.92 1.44 2.27.52 1.34.52 3.06 0 .86-.19 1.17-.19.3-.71.3Zm7.59-3.78v7.13q.65.79 1.42 1.11.77.33 1.67.33.86 0 1.56-.33.7-.32 1.19-.99.49-.67.75-1.68.26-1.02.26-2.4 0-1.39-.22-2.36-.23-.97-.64-1.57-.42-.61-1.02-.89-.6-.28-1.36-.28-1.19 0-2.03.51-.83.5-1.58 1.42Zm-.51-3.96.31 1.48q.98-1.1 2.22-1.79 1.24-.68 2.91-.68 1.3 0 2.38.55 1.08.54 1.86 1.57t1.21 2.54q.43 1.51.43 3.46 0 1.79-.48 3.31-.49 1.52-1.38 2.63-.89 1.12-2.15 1.74-1.26.63-2.83.63-1.33 0-2.28-.41-.94-.41-1.69-1.14v6.51h-3.83v-21.09h2.34q.75 0 .98.69Zm14.34-7.82h3.83v23.03h-3.83v-23.03Zm16.06 18.92v-2.68q-1.66.08-2.79.29-1.14.21-1.82.53-.68.33-.97.76-.3.44-.3.95 0 1.01.6 1.44.6.43 1.56.43 1.17 0 2.03-.42.86-.43 1.69-1.3Zm-8.09-8.35-.69-1.23q2.75-2.51 6.61-2.51 1.39 0 2.49.46 1.1.46 1.86 1.27t1.16 1.95q.39 1.13.39 2.48v10.04h-1.73q-.55 0-.84-.16-.3-.17-.47-.66l-.34-1.15q-.6.54-1.18.95-.57.42-1.19.69-.62.28-1.32.43-.71.15-1.56.15-1.01 0-1.86-.27-.85-.27-1.47-.82-.62-.54-.97-1.35-.34-.8-.34-1.87 0-.61.21-1.2.2-.6.65-1.14.46-.54 1.19-1.02.73-.49 1.79-.84 1.06-.36 2.47-.58 1.41-.23 3.23-.27v-.93q0-1.6-.69-2.37-.68-.77-1.96-.77-.93 0-1.55.22-.61.22-1.07.49l-.85.49q-.38.22-.84.22-.41 0-.69-.21-.27-.21-.44-.49Zm27.82-1.47-1.01 1.39q-.17.22-.33.34-.17.13-.48.13-.29 0-.57-.18-.28-.18-.67-.41-.38-.22-.92-.4-.53-.18-1.32-.18-1.01 0-1.77.37-.76.36-1.26 1.04-.51.69-.76 1.65-.24.97-.24 2.2 0 1.27.27 2.26.27.99.78 1.67.51.67 1.24 1.02t1.64.35q.92 0 1.48-.23.57-.22.96-.49.38-.27.67-.5.29-.22.64-.22.47 0 .7.35l1.1 1.4q-.63.74-1.38 1.25-.74.5-1.54.8-.8.3-1.64.43-.85.12-1.68.12-1.48 0-2.78-.55-1.3-.55-2.28-1.6-.97-1.06-1.54-2.58-.56-1.53-.56-3.48 0-1.75.5-3.25t1.48-2.59q.98-1.09 2.42-1.71 1.44-.62 3.31-.62 1.79 0 3.13.57 1.34.58 2.41 1.65Zm5.56 4.15h7.23q0-.74-.21-1.4-.21-.66-.63-1.16-.42-.49-1.06-.78-.65-.29-1.5-.29-1.66 0-2.61.95-.95.94-1.22 2.68Zm9.77 2.31h-9.85q.1 1.22.44 2.11.34.9.9 1.48t1.32.87q.77.28 1.7.28.93 0 1.6-.21.68-.22 1.18-.49.51-.26.89-.48.38-.21.73-.21.48 0 .72.35l1.1 1.4q-.64.74-1.43 1.25-.79.5-1.65.8-.86.3-1.75.43-.89.12-1.73.12-1.66 0-3.09-.55-1.42-.55-2.48-1.63-1.05-1.07-1.65-2.66-.61-1.59-.61-3.68 0-1.63.53-3.06.53-1.44 1.51-2.5t2.4-1.68q1.42-.62 3.2-.62 1.51 0 2.78.48 1.27.48 2.18 1.4.92.92 1.44 2.27.52 1.34.52 3.06 0 .86-.19 1.17-.19.3-.71.3Zm15.13 7.47h-3.83v-15.9h2.34q.74 0 .97.69l.25 1.18q.42-.46.88-.85.45-.39.97-.67t1.12-.44q.6-.16 1.31-.16 1.5 0 2.47.81.97.82 1.45 2.16.37-.79.93-1.35.56-.57 1.23-.92.66-.36 1.41-.53.76-.17 1.52-.17 1.31 0 2.34.4 1.02.4 1.72 1.18.69.78 1.06 1.89.36 1.12.36 2.56v10.12h-3.83V198.8q0-1.52-.66-2.29-.67-.77-1.96-.77-.58 0-1.09.21-.5.2-.88.58-.38.38-.6.95-.22.57-.22 1.32v10.12h-3.84V198.8q0-1.6-.64-2.33-.65-.73-1.89-.73-.83 0-1.55.42-.72.41-1.34 1.12v11.64Zm25.15-9.78h7.22q0-.74-.2-1.4-.21-.66-.63-1.16-.42-.49-1.06-.78-.65-.29-1.5-.29-1.66 0-2.61.95-.95.94-1.22 2.68Zm9.77 2.31h-9.85q.1 1.22.44 2.11.34.9.9 1.48t1.32.87q.77.28 1.7.28.93 0 1.6-.21.68-.22 1.18-.49.51-.26.89-.48.38-.21.73-.21.48 0 .71.35l1.11 1.4q-.64.74-1.43 1.25-.79.5-1.65.8-.86.3-1.75.43-.89.12-1.73.12-1.66 0-3.09-.55-1.42-.55-2.48-1.63-1.05-1.07-1.65-2.66-.61-1.59-.61-3.68 0-1.63.53-3.06.53-1.44 1.51-2.5t2.4-1.68q1.42-.62 3.2-.62 1.51 0 2.78.48 1.27.48 2.18 1.4.92.92 1.44 2.27.52 1.34.52 3.06 0 .86-.19 1.17-.19.3-.71.3Zm31.09-8.43h2.91l-5.05 15.9h-3.07q-.53 0-.73-.68l-2.85-9.19q-.14-.47-.25-.93-.12-.45-.2-.92-.09.47-.21.94-.11.47-.25.94l-2.9 9.16q-.19.68-.82.68h-2.95l-5.04-15.9h3.06q.42 0 .71.2.3.2.39.51l2.28 8.49q.17.7.3 1.37.13.66.22 1.33.17-.67.37-1.33.19-.67.41-1.37l2.63-8.52q.1-.31.37-.51t.66-.2h1.69q.4 0 .69.2.28.2.38.51l2.55 8.52q.2.7.38 1.38.18.67.35 1.34.2-1.32.58-2.72l2.34-8.49q.1-.31.38-.51t.67-.2Zm5.21 0h3.84v15.9h-3.84v-15.9Zm4.37-4.64q0 .5-.2.93-.2.44-.54.76-.33.33-.78.52t-.96.19q-.5 0-.94-.19-.44-.19-.77-.52-.32-.32-.52-.76-.19-.43-.19-.93 0-.51.19-.96.2-.45.52-.77.33-.33.77-.52.44-.2.94-.2.51 0 .96.2.45.19.78.52.34.32.54.77t.2.96Zm8.68 20.79q-2.08 0-3.19-1.17-1.1-1.17-1.1-3.23v-8.89h-1.63q-.31 0-.53-.2-.22-.2-.22-.6v-1.52l2.56-.42.81-4.34q.07-.31.29-.48.22-.17.56-.17h1.98v5.01h4.25v2.72h-4.25v8.62q0 .75.37 1.17.36.41 1 .41.35 0 .59-.08.24-.09.42-.18t.32-.18q.14-.08.28-.08.17 0 .28.08.11.09.23.26l1.15 1.86q-.84.7-1.92 1.05-1.09.36-2.25.36Zm10.06-23.28v8.83q.93-.87 2.04-1.41 1.12-.54 2.62-.54 1.31 0 2.31.44 1.01.44 1.69 1.24.67.8 1.02 1.91.35 1.11.35 2.44v10.12h-3.83V198.8q0-1.46-.67-2.26-.66-.8-2.03-.8-.99 0-1.86.45-.87.45-1.64 1.23v11.5h-3.83v-23.03h3.83Zm24.57 8.09.23 1.8q.74-1.43 1.77-2.24 1.02-.82 2.41-.82 1.1 0 1.77.48l-.25 2.87q-.08.28-.22.4-.15.11-.4.11-.23 0-.69-.08-.45-.07-.89-.07-.63 0-1.13.18-.5.19-.89.54-.4.35-.7.84-.3.5-.56 1.13v9.8h-3.83v-15.9h2.24q.59 0 .83.21.23.21.31.75Zm11.2 5.16h7.23q0-.74-.21-1.4-.21-.66-.63-1.16-.42-.49-1.06-.78-.65-.29-1.5-.29-1.66 0-2.61.95-.95.94-1.22 2.68Zm9.77 2.31h-9.85q.1 1.22.44 2.11.34.9.9 1.48t1.32.87q.77.28 1.7.28.93 0 1.6-.21.68-.22 1.18-.49.51-.26.89-.48.38-.21.73-.21.48 0 .72.35l1.1 1.4q-.64.74-1.43 1.25-.79.5-1.65.8-.86.3-1.75.43-.89.12-1.73.12-1.66 0-3.09-.55-1.42-.55-2.48-1.63-1.05-1.07-1.65-2.66-.61-1.59-.61-3.68 0-1.63.53-3.06.53-1.44 1.51-2.5t2.4-1.68q1.42-.62 3.2-.62 1.51 0 2.78.48 1.27.48 2.18 1.4.92.92 1.44 2.27.52 1.34.52 3.06 0 .86-.19 1.17-.19.3-.71.3Zm12.16 3.36v-2.68q-1.65.08-2.79.29-1.13.21-1.81.53-.68.33-.98.76-.29.44-.29.95 0 1.01.6 1.44.59.43 1.55.43 1.18 0 2.04-.42.86-.43 1.68-1.3Zm-8.09-8.35-.68-1.23q2.75-2.51 6.6-2.51 1.4 0 2.5.46t1.86 1.27q.76.81 1.16 1.95.39 1.13.39 2.48v10.04h-1.74q-.54 0-.83-.16-.3-.17-.47-.66l-.34-1.15q-.6.54-1.18.95-.57.42-1.19.69-.62.28-1.33.43-.7.15-1.55.15-1.01 0-1.86-.27-.86-.27-1.48-.82-.62-.54-.96-1.35-.34-.8-.34-1.87 0-.61.2-1.2.21-.6.66-1.14.46-.54 1.19-1.02.73-.49 1.79-.84 1.06-.36 2.47-.58 1.41-.23 3.22-.27v-.93q0-1.6-.68-2.37t-1.97-.77q-.93 0-1.54.22t-1.08.49q-.46.27-.84.49-.38.22-.84.22-.41 0-.69-.21-.28-.21-.45-.49Zm15.47-10.57h3.83v23.03h-3.83v-23.03Zm19.02 11.78v7.13q.65.79 1.42 1.11.77.33 1.67.33.86 0 1.56-.33.7-.32 1.19-.99.49-.67.75-1.68.26-1.02.26-2.4 0-1.39-.22-2.36-.23-.97-.65-1.57-.41-.61-1.01-.89-.6-.28-1.36-.28-1.19 0-2.03.51-.83.5-1.58 1.42Zm-.51-3.96.31 1.48q.98-1.1 2.22-1.79 1.24-.68 2.91-.68 1.3 0 2.38.55 1.08.54 1.86 1.57t1.21 2.54q.42 1.51.42 3.46 0 1.79-.48 3.31t-1.37 2.63q-.89 1.12-2.15 1.74-1.27.63-2.83.63-1.33 0-2.28-.41-.94-.41-1.69-1.14v6.51h-3.83v-21.09h2.34q.75 0 .98.69Zm14.41-.69h3.85v15.9h-3.85v-15.9Zm4.38-4.64q0 .5-.21.93-.2.44-.53.76-.33.33-.78.52t-.96.19q-.5 0-.94-.19-.44-.19-.77-.52-.32-.32-.52-.76-.19-.43-.19-.93 0-.51.19-.96.2-.45.52-.77.33-.33.77-.52.44-.2.94-.2.51 0 .96.2.45.19.78.52.33.32.53.77.21.45.21.96Zm15.77 6.61-1 1.39q-.17.22-.34.34-.16.13-.47.13-.29 0-.57-.18-.28-.18-.67-.41-.39-.22-.92-.4-.54-.18-1.33-.18-1 0-1.76.37-.76.36-1.27 1.04-.5.69-.75 1.65-.25.97-.25 2.2 0 1.27.27 2.26.28.99.79 1.67.51.67 1.24 1.02t1.64.35q.92 0 1.48-.23.57-.22.95-.49.39-.27.68-.5.29-.22.64-.22.47 0 .7.35l1.1 1.4q-.64.74-1.38 1.25-.74.5-1.54.8-.8.3-1.65.43-.84.12-1.68.12-1.47 0-2.77-.55t-2.28-1.6q-.98-1.06-1.54-2.58-.57-1.53-.57-3.48 0-1.75.51-3.25.5-1.5 1.48-2.59.97-1.09 2.41-1.71 1.45-.62 3.32-.62 1.78 0 3.12.57 1.35.58 2.41 1.65Zm7.85 14.18q-2.08 0-3.19-1.17-1.11-1.17-1.11-3.23v-8.89h-1.62q-.31 0-.53-.2-.22-.2-.22-.6v-1.52l2.56-.42.81-4.34q.07-.31.29-.48.22-.17.56-.17h1.98v5.01h4.25v2.72h-4.25v8.62q0 .75.37 1.17.36.41 1 .41.35 0 .59-.08.24-.09.42-.18t.32-.18q.14-.08.28-.08.17 0 .28.08.11.09.23.26l1.15 1.86q-.84.7-1.92 1.05-1.09.36-2.25.36Zm16.1-16.15h3.83v15.9h-2.34q-.76 0-.96-.7l-.26-1.27q-.98.99-2.16 1.61-1.18.61-2.77.61-1.31 0-2.3-.44-1-.45-1.69-1.25-.68-.81-1.03-1.92-.35-1.1-.35-2.44v-10.1h3.83v10.1q0 1.46.68 2.26.67.8 2.02.8.99 0 1.86-.45.87-.44 1.64-1.21v-11.5Zm10.99.96.23 1.8q.75-1.43 1.77-2.24 1.02-.82 2.42-.82 1.1 0 1.77.48l-.25 2.87q-.08.28-.23.4-.14.11-.39.11-.23 0-.69-.08-.46-.07-.89-.07-.64 0-1.13.18-.5.19-.9.54-.39.35-.69.84-.31.5-.57 1.13v9.8h-3.83v-15.9h2.25q.59 0 .82.21.23.21.31.75Zm11.21 5.16h7.22q0-.74-.21-1.4-.21-.66-.63-1.16-.41-.49-1.06-.78-.64-.29-1.49-.29-1.66 0-2.62.95-.95.94-1.21 2.68Zm9.76 2.31h-9.84q.09 1.22.43 2.11.35.9.9 1.48.56.58 1.33.87.77.28 1.7.28.93 0 1.6-.21.67-.22 1.18-.49.5-.26.88-.48.38-.21.74-.21.48 0 .71.35l1.1 1.4q-.63.74-1.42 1.25-.79.5-1.65.8-.87.3-1.76.43-.89.12-1.72.12-1.66 0-3.09-.55t-2.48-1.63q-1.05-1.07-1.66-2.66-.6-1.59-.6-3.68 0-1.63.52-3.06.53-1.44 1.52-2.5.98-1.06 2.4-1.68 1.42-.62 3.2-.62 1.5 0 2.77.48t2.19 1.4q.91.92 1.43 2.27.52 1.34.52 3.06 0 .86-.18 1.17-.19.3-.72.3Z"/></svg>